<svg width="20" height="20" viewBox="0 0 20 20" fill="none" xmlns="http://www.w3.org/2000/svg">
<path fill-rule="evenodd" clip-rule="evenodd" d="M3.18184 8.48485C3.18184 5.55607 5.55609 3.18182 8.48487 3.18182C11.4137 3.18182 13.7879 5.55607 13.7879 8.48485C13.7879 11.4136 11.4137 13.7879 8.48487 13.7879C5.55609 13.7879 3.18184 11.4136 3.18184 8.48485ZM8.48487 1.66667C4.71929 1.66667 1.66669 4.71928 1.66669 8.48485C1.66669 12.2504 4.71929 15.303 8.48487 15.303C12.2504 15.303 15.3031 12.2504 15.3031 8.48485C15.3031 4.71928 12.2504 1.66667 8.48487 1.66667ZM15.0812 14.0098C14.7853 13.7139 14.3056 13.7139 14.0098 14.0098C13.7139 14.3056 13.7139 14.7853 14.0098 15.0811L17.0401 18.1115C17.3359 18.4073 17.8156 18.4073 18.1115 18.1115C18.4073 17.8156 18.4073 17.3359 18.1115 17.0401L15.0812 14.0098Z" fill="#22240F"/>
</svg>
