<svg width="24" height="24" viewBox="0 0 24 24" fill="none" xmlns="http://www.w3.org/2000/svg">
<path d="M13.6094 22.3906C13.8672 22.6484 14.1953 22.7891 14.582 22.7891C15.3555 22.7891 15.9766 22.1797 15.9766 21.4062C15.9766 21.0195 15.8125 20.668 15.543 20.3984L7.33984 12.3828L15.543 4.39062C15.8125 4.12109 15.9766 3.75781 15.9766 3.38281C15.9766 2.60938 15.3555 2 14.582 2C14.1953 2 13.8672 2.14062 13.6094 2.39844L4.49219 11.3047C4.16406 11.6094 4.01172 11.9844 4 12.3945C4 12.8047 4.16406 13.1562 4.49219 13.4727L13.6094 22.3906Z" fill="#1B1C1C"/>
</svg>
