<svg width="192" height="193" viewBox="0 0 192 193" fill="none" xmlns="http://www.w3.org/2000/svg">
<rect y="0.5" width="192" height="192" rx="24" fill="#FFB1DB" fill-opacity="0.66"/>
<path fill-rule="evenodd" clip-rule="evenodd" d="M124.885 116.384C117.714 116.384 111.9 122.2 111.9 129.374C111.9 136.549 117.714 142.365 124.885 142.365C132.057 142.365 137.87 136.549 137.87 129.374C137.87 122.2 132.056 116.384 124.885 116.384ZM103.95 129.374C103.95 117.807 113.323 108.43 124.885 108.43C136.447 108.43 145.82 117.807 145.82 129.374C145.82 133.729 144.492 137.773 142.218 141.123C142.328 141.212 142.434 141.307 142.536 141.409L147.836 146.711C149.388 148.264 149.388 150.782 147.836 152.335C146.283 153.888 143.767 153.888 142.214 152.335L136.914 147.033C136.812 146.931 136.717 146.825 136.629 146.715C133.28 148.99 129.238 150.318 124.885 150.318C113.323 150.318 103.95 140.942 103.95 129.374Z" fill="#1B1C1C"/>
<path fill-rule="evenodd" clip-rule="evenodd" d="M49.0675 46.1086C54.0821 40.7462 61.9661 39.4999 71.9911 39.4999H112.059C122.084 39.4999 129.968 40.7462 134.983 46.1086C139.909 51.3766 141.05 59.5769 141.05 70.2004V92.7882C141.05 94.9845 139.27 96.765 137.075 96.765C134.88 96.765 133.1 94.9845 133.1 92.7882V70.2004C133.1 59.4556 131.75 54.2939 129.177 51.5422C126.692 48.8848 122.068 47.4534 112.059 47.4534H71.9911C61.982 47.4534 57.358 48.8848 54.8731 51.5422C52.2999 54.2939 50.95 59.4556 50.95 70.2004V129.904C50.95 133.11 51.3957 135.411 52.0114 136.921C52.6218 138.419 53.2722 138.868 53.5891 139.004C53.8769 139.128 54.5512 139.282 55.886 138.706C57.2598 138.112 59.0677 136.839 61.1856 134.564C61.2162 134.531 61.2474 134.499 61.2791 134.467L61.2954 134.451C67.3228 128.101 76.8221 128.62 82.0638 135.635L82.065 135.636L87.4169 142.793C88.732 144.552 88.3731 147.044 86.6153 148.359C84.8574 149.675 82.3663 149.316 81.0512 147.557L75.697 140.398C73.4243 137.356 69.706 137.119 67.0396 139.949C67.0141 139.976 66.9883 140.003 66.962 140.029L66.9555 140.036C64.3974 142.774 61.7362 144.842 59.0373 146.008C56.2828 147.198 53.2636 147.524 50.4443 146.309C47.654 145.107 45.7837 142.706 44.65 139.925C43.5217 137.157 43 133.751 43 129.904V70.2004C43 59.5769 44.1412 51.3766 49.0675 46.1086Z" fill="#1B1C1C"/>
<path fill-rule="evenodd" clip-rule="evenodd" d="M66.85 69.9883C66.85 67.792 68.6297 66.0115 70.825 66.0115H113.225C115.42 66.0115 117.2 67.792 117.2 69.9883C117.2 72.1846 115.42 73.965 113.225 73.965H70.825C68.6297 73.965 66.85 72.1846 66.85 69.9883Z" fill="#1B1C1C"/>
<path fill-rule="evenodd" clip-rule="evenodd" d="M72.15 91.1976C72.15 89.0013 73.9297 87.2208 76.125 87.2208H107.925C110.12 87.2208 111.9 89.0013 111.9 91.1976C111.9 93.3939 110.12 95.1743 107.925 95.1743H76.125C73.9297 95.1743 72.15 93.3939 72.15 91.1976Z" fill="#1B1C1C"/>
</svg>
