<svg width="192" height="192" viewBox="0 0 192 192" fill="none" xmlns="http://www.w3.org/2000/svg">
<rect width="192" height="192" rx="24" fill="#FFB1DB" fill-opacity="0.66"/>
<path d="M43 52C43 40.9543 51.9543 32 63 32H130C141.046 32 150 40.9543 150 52V117.411C150 133.671 131.628 143.135 118.389 133.695L112.756 129.678C103.028 122.742 89.9715 122.742 80.2441 129.678L74.6114 133.695C61.3723 143.135 43 133.671 43 117.411V52Z" stroke="black" stroke-width="8"/>
<line x1="69" y1="53" x2="123" y2="53" stroke="black" stroke-width="6" stroke-linecap="round"/>
<line x1="79" y1="67" x2="113" y2="67" stroke="black" stroke-width="6" stroke-linecap="round"/>
<line x1="74" y1="95" x2="118" y2="95" stroke="black" stroke-width="6" stroke-linecap="round"/>
<line x1="64" y1="81" x2="128" y2="81" stroke="black" stroke-width="6" stroke-linecap="round"/>
</svg>
